<?xml version="1.0" standalone="no"?>
<!DOCTYPE svg PUBLIC "-//W3C//DTD SVG 20010904//EN"
 "http://www.w3.org/TR/2001/REC-SVG-20010904/DTD/svg10.dtd">
<svg version="1.0" xmlns="http://www.w3.org/2000/svg"
 width="529.000000pt" height="529.000000pt" viewBox="0 0 529.000000 529.000000"
 preserveAspectRatio="xMidYMid meet">
<metadata>
Created by potrace 1.14, written by Peter Selinger 2001-2017
</metadata>
<g transform="translate(0.000000,529.000000) scale(0.100000,-0.100000)"
fill="#000000" stroke="none">
<path d="M1009 5057 c-58 -11 -58 -11 -103 -30 -21 -9 -41 -17 -44 -17 -31 0
-232 -174 -232 -200 0 -5 -6 -15 -13 -22 -17 -18 -61 -121 -78 -183 -11 -41
-13 -363 -12 -1855 0 -993 3 -1819 6 -1835 23 -132 130 -271 257 -335 87 -44
145 -51 386 -51 l221 1 0 -186 c0 -261 -6 -259 174 -74 77 80 145 145 152 145
12 0 57 -43 201 -194 79 -83 99 -96 115 -77 7 8 12 82 13 197 l3 184 975 2
c536 2 980 5 986 7 9 3 11 251 10 1027 l-2 1021 49 87 c28 47 58 100 67 116
34 61 248 432 279 483 17 29 31 56 31 59 0 4 6 14 14 22 8 9 26 39 41 66 14
28 35 65 46 84 20 34 156 269 189 327 10 17 56 98 103 180 93 162 113 218 104
295 -19 160 -143 271 -307 274 -41 1 -82 -2 -90 -6 -8 -5 -31 -15 -50 -24 -70
-31 -100 -72 -275 -374 -95 -166 -180 -310 -187 -320 -12 -17 -14 75 -13 595
0 338 -2 615 -5 615 -24 6 -2977 2 -3011 -4z"/>
</g>
</svg>
